<svg width="293.7mm" height="297.5mm" version="1.1" viewBox="0 0 293.7 297.5" xml:space="preserve" xmlns="http://www.w3.org/2000/svg" xmlns:xlink="http://www.w3.org/1999/xlink"><defs><pattern id="pattern7" patternTransform="matrix(.3745 0 0 .3745 152.5 1749)" preserveAspectRatio="xMidYMid" xlink:href="#shading27"/><clipPath id="clipPath52"><path d="m-880.8-187.3h1641v73.28h-1641z" stop-color="#000000" stroke-linecap="square" stroke-width=".1" style="paint-order:markers fill stroke"/></clipPath><pattern id="shading27" width="565.45114" height="25.387499" fill="#001824" patternTransform="translate(206 1751)" patternUnits="userSpaceOnUse" preserveAspectRatio="xMidYMid"><path transform="matrix(.3464 0 0 .3464 302.2 64.89)" d="m760-187.3c0 0.5198-0.4214 0.9412-0.9412 0.9412s-0.9412-0.4214-0.9412-0.9412 0.4214-0.9412 0.9412-0.9412 0.9412 0.4214 0.9412 0.9412zm-38.03 0c0 0.8909-0.7222 1.613-1.613 1.613-0.8909 0-1.613-0.7222-1.613-1.613s0.7222-1.613 1.613-1.613c0.8909 0 1.613 0.7222 1.613 1.613zm-38.03 0c0 1.262-1.023 2.285-2.285 2.285-1.262 0-2.285-1.023-2.285-2.285s1.023-2.285 2.285-2.285c1.262 0 2.285 1.023 2.285 2.285zm-38.03 0c0 1.633-1.324 2.957-2.957 2.957-1.633 0-2.957-1.324-2.957-2.957s1.324-2.957 2.957-2.957 2.957 1.324 2.957 2.957zm-38.03 0c0 2.004-1.625 3.629-3.629 3.629s-3.629-1.625-3.629-3.629 1.625-3.629 3.629-3.629 3.629 1.625 3.629 3.629zm-38.03 0c0 2.375-1.926 4.301-4.301 4.301-2.375 0-4.301-1.926-4.301-4.301s1.926-4.301 4.301-4.301c2.375 0 4.301 1.926 4.301 4.301zm-38.03 0c0 2.747-2.227 4.973-4.973 4.973-2.747 0-4.973-2.227-4.973-4.973 0-2.747 2.227-4.973 4.973-4.973 2.747 0 4.973 2.227 4.973 4.973zm-38.03 0c0 3.118-2.527 5.645-5.645 5.645s-5.645-2.527-5.645-5.645 2.527-5.645 5.645-5.645 5.645 2.527 5.645 5.645zm-38.03 0c0 3.489-2.828 6.317-6.317 6.317-3.489 0-6.317-2.828-6.317-6.317 0-3.489 2.828-6.317 6.317-6.317 3.489 0 6.317 2.828 6.317 6.317zm-38.03 0c0 3.86-3.129 6.989-6.989 6.989-3.86 0-6.989-3.129-6.989-6.989s3.129-6.989 6.989-6.989c3.86 0 6.989 3.129 6.989 6.989zm-38.03 0c0 4.231-3.43 7.661-7.661 7.661-4.231 0-7.661-3.43-7.661-7.661 0-4.231 3.43-7.661 7.661-7.661 4.231 0 7.661 3.43 7.661 7.661zm-38.03 0c0 4.602-3.731 8.333-8.333 8.333s-8.333-3.731-8.333-8.333 3.731-8.333 8.333-8.333 8.333 3.731 8.333 8.333zm-38.03 0c0 4.973-4.032 9.005-9.005 9.005-4.973 0-9.005-4.032-9.005-9.005 0-4.973 4.032-9.005 9.005-9.005s9.005 4.032 9.005 9.005zm-38.03 0c0 5.344-4.333 9.677-9.677 9.677-5.344 0-9.677-4.333-9.677-9.677 0-5.344 4.333-9.677 9.677-9.677 5.344 0 9.677 4.333 9.677 9.677zm-38.03 0c0 5.716-4.633 10.35-10.35 10.35s-10.35-4.633-10.35-10.35 4.633-10.35 10.35-10.35 10.35 4.633 10.35 10.35zm-38.03 0c0 6.087-4.934 11.02-11.02 11.02s-11.02-4.934-11.02-11.02c0-6.087 4.934-11.02 11.02-11.02s11.02 4.934 11.02 11.02zm-38.03 0c0 6.458-5.235 11.69-11.69 11.69-6.458 0-11.69-5.235-11.69-11.69s5.235-11.69 11.69-11.69c6.458 0 11.69 5.235 11.69 11.69zm-38.03 0c0 6.829-5.536 12.36-12.36 12.36-6.829 0-12.36-5.536-12.36-12.36 0-6.829 5.536-12.36 12.36-12.36 6.829 0 12.36 5.536 12.36 12.36zm-38.03 0c0 7.2-5.837 13.04-13.04 13.04-7.2 0-13.04-5.837-13.04-13.04-1e-6 -7.2 5.837-13.04 13.04-13.04 7.2 0 13.04 5.837 13.04 13.04zm-38.03 0c0 7.571-6.138 13.71-13.71 13.71-7.571 0-13.71-6.138-13.71-13.71-1e-7 -7.571 6.138-13.71 13.71-13.71s13.71 6.138 13.71 13.71zm-38.03 0c0 7.942-6.438 14.38-14.38 14.38s-14.38-6.439-14.38-14.38c0-7.942 6.439-14.38 14.38-14.38s14.38 6.439 14.38 14.38zm-38.03 0c0 8.313-6.739 15.05-15.05 15.05-8.313 0-15.05-6.739-15.05-15.05 0-8.313 6.739-15.05 15.05-15.05 8.313 0 15.05 6.739 15.05 15.05zm-38.03 0c0 8.685-7.04 15.72-15.72 15.72-8.685 0-15.72-7.04-15.72-15.72 0-8.685 7.04-15.72 15.72-15.72 8.685 0 15.72 7.04 15.72 15.72zm-38.03 0c0 9.056-7.341 16.4-16.4 16.4-9.056 0-16.4-7.341-16.4-16.4 0-9.056 7.341-16.4 16.4-16.4 9.056 0 16.4 7.341 16.4 16.4zm-38.03 0c0 9.427-7.642 17.07-17.07 17.07-9.427 0-17.07-7.642-17.07-17.07 0-9.427 7.642-17.07 17.07-17.07 9.427 0 17.07 7.642 17.07 17.07zm-38.03 0c0 9.798-7.943 17.74-17.74 17.74s-17.74-7.943-17.74-17.74c0-9.798 7.943-17.74 17.74-17.74 9.798 0 17.74 7.943 17.74 17.74zm-38.03 0c0 10.17-8.244 18.41-18.41 18.41s-18.41-8.244-18.41-18.41c0-10.17 8.244-18.41 18.41-18.41s18.41 8.244 18.41 18.41zm-38.03 0c0 10.54-8.544 19.08-19.08 19.08-10.54 0-19.08-8.544-19.08-19.08 0-10.54 8.544-19.08 19.08-19.08 10.54 0 19.08 8.544 19.08 19.08zm-38.03 0c0 10.91-8.845 19.76-19.76 19.76-10.91 0-19.76-8.845-19.76-19.76 0-10.91 8.845-19.76 19.76-19.76s19.76 8.845 19.76 19.76zm-38.03 0c0 11.28-9.146 20.43-20.43 20.43s-20.43-9.146-20.43-20.43c0-11.28 9.146-20.43 20.43-20.43s20.43 9.146 20.43 20.43zm-38.03 0c0 11.65-9.447 21.1-21.1 21.1-11.65 0-21.1-9.447-21.1-21.1 0-11.65 9.447-21.1 21.1-21.1s21.1 9.447 21.1 21.1zm-38.03 0c0 12.02-9.748 21.77-21.77 21.77-12.02 0-21.77-9.748-21.77-21.77 0-12.02 9.748-21.77 21.77-21.77 12.02 0 21.77 9.748 21.77 21.77zm-38.03 0c0 12.4-10.05 22.44-22.44 22.44-12.4 0-22.44-10.05-22.44-22.44 0-12.4 10.05-22.44 22.44-22.44 12.4 0 22.44 10.05 22.44 22.44zm-38.03 0c0 12.77-10.35 23.12-23.12 23.12s-23.12-10.35-23.12-23.12c0-12.77 10.35-23.12 23.12-23.12s23.12 10.35 23.12 23.12zm-38.03 0c0 13.14-10.65 23.79-23.79 23.79-13.14 0-23.79-10.65-23.79-23.79 0-13.14 10.65-23.79 23.79-23.79 13.14 0 23.79 10.65 23.79 23.79zm-38.03 0c0 13.51-10.95 24.46-24.46 24.46-13.51 0-24.46-10.95-24.46-24.46 0-13.51 10.95-24.46 24.46-24.46 13.51 0 24.46 10.95 24.46 24.46zm-38.03 0c0 13.88-11.25 25.13-25.13 25.13s-25.13-11.25-25.13-25.13c0-13.88 11.25-25.13 25.13-25.13s25.13 11.25 25.13 25.13zm-38.03 0c0 14.25-11.55 25.8-25.8 25.8-14.25 0-25.8-11.55-25.8-25.8 0-14.25 11.55-25.8 25.8-25.8s25.8 11.55 25.8 25.8zm-38.03 0c0 14.62-11.85 26.48-26.48 26.48-14.62 0-26.48-11.85-26.48-26.48 0-14.62 11.85-26.48 26.48-26.48 14.62 0 26.48 11.85 26.48 26.48zm-38.03 0c0 14.99-12.15 27.15-27.15 27.15-14.99 0-27.15-12.15-27.15-27.15 0-14.99 12.15-27.15 27.15-27.15 14.99 0 27.15 12.15 27.15 27.15zm-38.03 1e-5c0 15.36-12.46 27.82-27.82 27.82s-27.82-12.46-27.82-27.82c0-15.36 12.46-27.82 27.82-27.82s27.82 12.46 27.82 27.82zm1466 36.64c0 0.5198-0.4214 0.9412-0.9412 0.9412s-0.9412-0.4214-0.9412-0.9412 0.4214-0.9412 0.9412-0.9412 0.9412 0.4214 0.9412 0.9412zm-38.03 0c0 0.8909-0.7222 1.613-1.613 1.613-0.8909 0-1.613-0.7222-1.613-1.613s0.7222-1.613 1.613-1.613c0.8909 0 1.613 0.7222 1.613 1.613zm-38.03 0c0 1.262-1.023 2.285-2.285 2.285s-2.285-1.023-2.285-2.285 1.023-2.285 2.285-2.285 2.285 1.023 2.285 2.285zm-38.03 0c0 1.633-1.324 2.957-2.957 2.957-1.633 0-2.957-1.324-2.957-2.957s1.324-2.957 2.957-2.957 2.957 1.324 2.957 2.957zm-38.03 0c0 2.004-1.625 3.629-3.629 3.629-2.004 0-3.629-1.625-3.629-3.629s1.625-3.629 3.629-3.629c2.004 0 3.629 1.625 3.629 3.629zm-38.03 0c0 2.375-1.926 4.301-4.301 4.301s-4.301-1.926-4.301-4.301 1.926-4.301 4.301-4.301 4.301 1.926 4.301 4.301zm-38.03 0c0 2.747-2.227 4.973-4.973 4.973s-4.973-2.227-4.973-4.973c0-2.747 2.227-4.973 4.973-4.973s4.973 2.227 4.973 4.973zm-38.03 0c0 3.118-2.527 5.645-5.645 5.645s-5.645-2.527-5.645-5.645 2.527-5.645 5.645-5.645 5.645 2.527 5.645 5.645zm-38.03 0c0 3.489-2.828 6.317-6.317 6.317-3.489 0-6.317-2.828-6.317-6.317 0-3.489 2.828-6.317 6.317-6.317 3.489 0 6.317 2.828 6.317 6.317zm-38.03 0c0 3.86-3.129 6.989-6.989 6.989s-6.989-3.129-6.989-6.989 3.129-6.989 6.989-6.989 6.989 3.129 6.989 6.989zm-38.03 0c0 4.231-3.43 7.661-7.661 7.661-4.231 0-7.661-3.43-7.661-7.661 0-4.231 3.43-7.661 7.661-7.661s7.661 3.43 7.661 7.661zm-38.03 0c0 4.602-3.731 8.333-8.333 8.333s-8.333-3.731-8.333-8.333 3.731-8.333 8.333-8.333c4.602 0 8.333 3.731 8.333 8.333zm-38.03 0c0 4.973-4.032 9.005-9.005 9.005-4.973 0-9.005-4.032-9.005-9.005 0-4.973 4.032-9.005 9.005-9.005s9.005 4.032 9.005 9.005zm-38.03 0c0 5.344-4.333 9.677-9.677 9.677s-9.677-4.333-9.677-9.677c0-5.344 4.333-9.677 9.677-9.677 5.344 0 9.677 4.333 9.677 9.677zm-38.03 0c0 5.716-4.633 10.35-10.35 10.35-5.716 0-10.35-4.633-10.35-10.35s4.633-10.35 10.35-10.35 10.35 4.633 10.35 10.35zm-38.03 0c0 6.087-4.934 11.02-11.02 11.02-6.087 0-11.02-4.934-11.02-11.02 0-6.087 4.934-11.02 11.02-11.02 6.087 0 11.02 4.934 11.02 11.02zm-38.03 0c0 6.458-5.235 11.69-11.69 11.69s-11.69-5.235-11.69-11.69 5.235-11.69 11.69-11.69 11.69 5.235 11.69 11.69zm-38.03 0c0 6.829-5.536 12.36-12.36 12.36-6.829 0-12.36-5.536-12.36-12.36 0-6.829 5.536-12.36 12.36-12.36 6.829 0 12.36 5.536 12.36 12.36zm-38.03 0c0 7.2-5.837 13.04-13.04 13.04-7.2 0-13.04-5.837-13.04-13.04-1e-7 -7.2 5.837-13.04 13.04-13.04 7.2 0 13.04 5.837 13.04 13.04zm-38.03 0c0 7.571-6.138 13.71-13.71 13.71-7.571 0-13.71-6.138-13.71-13.71 0-7.571 6.138-13.71 13.71-13.71s13.71 6.138 13.71 13.71zm-38.03 0c0 7.942-6.438 14.38-14.38 14.38s-14.38-6.439-14.38-14.38c0-7.942 6.439-14.38 14.38-14.38s14.38 6.439 14.38 14.38zm-38.03 0c0 8.313-6.739 15.05-15.05 15.05-8.313 0-15.05-6.739-15.05-15.05 0-8.313 6.739-15.05 15.05-15.05s15.05 6.739 15.05 15.05zm-38.03 0c0 8.685-7.04 15.72-15.72 15.72-8.685 0-15.72-7.04-15.72-15.72 0-8.685 7.04-15.72 15.72-15.72 8.685 0 15.72 7.04 15.72 15.72zm-38.03 0c0 9.056-7.341 16.4-16.4 16.4-9.056 0-16.4-7.341-16.4-16.4 0-9.056 7.341-16.4 16.4-16.4 9.056 0 16.4 7.341 16.4 16.4zm-38.03 0c0 9.427-7.642 17.07-17.07 17.07s-17.07-7.642-17.07-17.07c0-9.427 7.642-17.07 17.07-17.07s17.07 7.642 17.07 17.07zm-38.03 0c0 9.798-7.943 17.74-17.74 17.74-9.798 0-17.74-7.943-17.74-17.74 0-9.798 7.943-17.74 17.74-17.74 9.798 0 17.74 7.943 17.74 17.74zm-38.03 0c0 10.17-8.244 18.41-18.41 18.41-10.17 0-18.41-8.244-18.41-18.41 0-10.17 8.244-18.41 18.41-18.41 10.17 0 18.41 8.244 18.41 18.41zm-38.03 0c0 10.54-8.544 19.08-19.08 19.08s-19.08-8.544-19.08-19.08c0-10.54 8.544-19.08 19.08-19.08 10.54 0 19.08 8.544 19.08 19.08zm-38.03 0c0 10.91-8.845 19.76-19.76 19.76s-19.76-8.845-19.76-19.76c0-10.91 8.845-19.76 19.76-19.76s19.76 8.845 19.76 19.76zm-38.03 0c0 11.28-9.146 20.43-20.43 20.43s-20.43-9.146-20.43-20.43c0-11.28 9.146-20.43 20.43-20.43 11.28 0 20.43 9.146 20.43 20.43zm-38.03 0c0 11.65-9.447 21.1-21.1 21.1-11.65 0-21.1-9.447-21.1-21.1 0-11.65 9.447-21.1 21.1-21.1 11.65 0 21.1 9.447 21.1 21.1zm-38.03 0c0 12.02-9.748 21.77-21.77 21.77s-21.77-9.748-21.77-21.77c0-12.02 9.748-21.77 21.77-21.77s21.77 9.748 21.77 21.77zm-38.03 0c0 12.4-10.05 22.44-22.44 22.44-12.4 0-22.44-10.05-22.44-22.44 0-12.4 10.05-22.44 22.44-22.44 12.4 0 22.44 10.05 22.44 22.44zm-38.03 0c0 12.77-10.35 23.12-23.12 23.12-12.77 0-23.12-10.35-23.12-23.12 0-12.77 10.35-23.12 23.12-23.12s23.12 10.35 23.12 23.12zm-38.03 0c0 13.14-10.65 23.79-23.79 23.79-13.14 0-23.79-10.65-23.79-23.79 0-13.14 10.65-23.79 23.79-23.79 13.14 0 23.79 10.65 23.79 23.79zm-38.03 0c0 13.51-10.95 24.46-24.46 24.46s-24.46-10.95-24.46-24.46c0-13.51 10.95-24.46 24.46-24.46s24.46 10.95 24.46 24.46zm-38.03 0c0 13.88-11.25 25.13-25.13 25.13s-25.13-11.25-25.13-25.13c0-13.88 11.25-25.13 25.13-25.13 13.88 0 25.13 11.25 25.13 25.13zm-38.03 0c0 14.25-11.55 25.8-25.8 25.8-14.25 0-25.8-11.55-25.8-25.8 0-14.25 11.55-25.8 25.8-25.8 14.25 0 25.8 11.55 25.8 25.8zm-38.03 0c0 14.62-11.85 26.48-26.48 26.48s-26.48-11.85-26.48-26.48c0-14.62 11.85-26.48 26.48-26.48s26.48 11.85 26.48 26.48zm-38.03 0c0 14.99-12.15 27.15-27.15 27.15-14.99 0-27.15-12.15-27.15-27.15 0-14.99 12.15-27.15 27.15-27.15 14.99 0 27.15 12.15 27.15 27.15zm-38.03 1e-5c0 15.36-12.46 27.82-27.82 27.82s-27.82-12.46-27.82-27.82c0-15.36 12.46-27.82 27.82-27.82s27.82 12.46 27.82 27.82zm1577 36.64c0 0.5198-0.4214 0.9412-0.9412 0.9412s-0.9412-0.4214-0.9412-0.9412 0.4214-0.9412 0.9412-0.9412 0.9412 0.4214 0.9412 0.9412zm-38.03 0c0 0.8909-0.7222 1.613-1.613 1.613-0.8909 0-1.613-0.7222-1.613-1.613s0.7222-1.613 1.613-1.613c0.8909 0 1.613 0.7222 1.613 1.613zm-38.03 0c0 1.262-1.023 2.285-2.285 2.285-1.262 0-2.285-1.023-2.285-2.285s1.023-2.285 2.285-2.285c1.262 0 2.285 1.023 2.285 2.285zm-38.03 0c0 1.633-1.324 2.957-2.957 2.957-1.633 0-2.957-1.324-2.957-2.957s1.324-2.957 2.957-2.957 2.957 1.324 2.957 2.957zm-38.03 0c0 2.004-1.625 3.629-3.629 3.629s-3.629-1.625-3.629-3.629 1.625-3.629 3.629-3.629 3.629 1.625 3.629 3.629zm-38.03 0c0 2.375-1.926 4.301-4.301 4.301-2.375 0-4.301-1.926-4.301-4.301s1.926-4.301 4.301-4.301c2.375 0 4.301 1.926 4.301 4.301zm-38.03 0c0 2.747-2.227 4.973-4.973 4.973-2.747 0-4.973-2.227-4.973-4.973 0-2.747 2.227-4.973 4.973-4.973 2.747 0 4.973 2.227 4.973 4.973zm-38.03 0c0 3.118-2.527 5.645-5.645 5.645s-5.645-2.527-5.645-5.645 2.527-5.645 5.645-5.645 5.645 2.527 5.645 5.645zm-38.03 0c0 3.489-2.828 6.317-6.317 6.317-3.489 0-6.317-2.828-6.317-6.317 0-3.489 2.828-6.317 6.317-6.317 3.489 0 6.317 2.828 6.317 6.317zm-38.03 0c0 3.86-3.129 6.989-6.989 6.989-3.86 0-6.989-3.129-6.989-6.989s3.129-6.989 6.989-6.989c3.86 0 6.989 3.129 6.989 6.989zm-38.03 0c0 4.231-3.43 7.661-7.661 7.661-4.231 0-7.661-3.43-7.661-7.661 0-4.231 3.43-7.661 7.661-7.661 4.231 0 7.661 3.43 7.661 7.661zm-38.03 0c0 4.602-3.731 8.333-8.333 8.333s-8.333-3.731-8.333-8.333 3.731-8.333 8.333-8.333 8.333 3.731 8.333 8.333zm-38.03 0c0 4.973-4.032 9.005-9.005 9.005-4.973 0-9.005-4.032-9.005-9.005 0-4.973 4.032-9.005 9.005-9.005s9.005 4.032 9.005 9.005zm-38.03 0c0 5.344-4.333 9.677-9.677 9.677-5.344 0-9.677-4.333-9.677-9.677 0-5.344 4.333-9.677 9.677-9.677 5.344 0 9.677 4.333 9.677 9.677zm-38.03 0c0 5.716-4.633 10.35-10.35 10.35s-10.35-4.633-10.35-10.35 4.633-10.35 10.35-10.35 10.35 4.633 10.35 10.35zm-38.03 0c0 6.087-4.934 11.02-11.02 11.02s-11.02-4.934-11.02-11.02c0-6.087 4.934-11.02 11.02-11.02s11.02 4.934 11.02 11.02zm-38.03 0c0 6.458-5.235 11.69-11.69 11.69-6.458 0-11.69-5.235-11.69-11.69s5.235-11.69 11.69-11.69c6.458 0 11.69 5.235 11.69 11.69zm-38.03 0c0 6.829-5.536 12.36-12.36 12.36-6.829 0-12.36-5.536-12.36-12.36 0-6.829 5.536-12.36 12.36-12.36 6.829 0 12.36 5.536 12.36 12.36zm-38.03 0c0 7.2-5.837 13.04-13.04 13.04-7.2 0-13.04-5.837-13.04-13.04-1e-6 -7.2 5.837-13.04 13.04-13.04 7.2 0 13.04 5.837 13.04 13.04zm-38.03 0c0 7.571-6.138 13.71-13.71 13.71-7.571 0-13.71-6.138-13.71-13.71-1e-7 -7.571 6.138-13.71 13.71-13.71s13.71 6.138 13.71 13.71zm-38.03 0c0 7.942-6.438 14.38-14.38 14.38s-14.38-6.439-14.38-14.38c0-7.942 6.439-14.38 14.38-14.38s14.38 6.439 14.38 14.38zm-38.03 0c0 8.313-6.739 15.05-15.05 15.05-8.313 0-15.05-6.739-15.05-15.05 0-8.313 6.739-15.05 15.05-15.05 8.313 0 15.05 6.739 15.05 15.05zm-38.03 0c0 8.685-7.04 15.72-15.72 15.72-8.685 0-15.72-7.04-15.72-15.72 0-8.685 7.04-15.72 15.72-15.72 8.685 0 15.72 7.04 15.72 15.72zm-38.03 0c0 9.056-7.341 16.4-16.4 16.4-9.056 0-16.4-7.341-16.4-16.4 0-9.056 7.341-16.4 16.4-16.4 9.056 0 16.4 7.341 16.4 16.4zm-38.03 0c0 9.427-7.642 17.07-17.07 17.07-9.427 0-17.07-7.642-17.07-17.07 0-9.427 7.642-17.07 17.07-17.07 9.427 0 17.07 7.642 17.07 17.07zm-38.03 0c0 9.798-7.943 17.74-17.74 17.74s-17.74-7.943-17.74-17.74c0-9.798 7.943-17.74 17.74-17.74 9.798 0 17.74 7.943 17.74 17.74zm-38.03 0c0 10.17-8.244 18.41-18.41 18.41s-18.41-8.244-18.41-18.41c0-10.17 8.244-18.41 18.41-18.41s18.41 8.244 18.41 18.41zm-38.03 0c0 10.54-8.544 19.08-19.08 19.08-10.54 0-19.08-8.544-19.08-19.08 0-10.54 8.544-19.08 19.08-19.08 10.54 0 19.08 8.544 19.08 19.08zm-38.03 0c0 10.91-8.845 19.76-19.76 19.76-10.91 0-19.76-8.845-19.76-19.76 0-10.91 8.845-19.76 19.76-19.76s19.76 8.845 19.76 19.76zm-38.03 0c0 11.28-9.146 20.43-20.43 20.43s-20.43-9.146-20.43-20.43c0-11.28 9.146-20.43 20.43-20.43s20.43 9.146 20.43 20.43zm-38.03 0c0 11.65-9.447 21.1-21.1 21.1-11.65 0-21.1-9.447-21.1-21.1 0-11.65 9.447-21.1 21.1-21.1s21.1 9.447 21.1 21.1zm-38.03 0c0 12.02-9.748 21.77-21.77 21.77-12.02 0-21.77-9.748-21.77-21.77 0-12.02 9.748-21.77 21.77-21.77 12.02 0 21.77 9.748 21.77 21.77zm-38.03 0c0 12.4-10.05 22.44-22.44 22.44-12.4 0-22.44-10.05-22.44-22.44 0-12.4 10.05-22.44 22.44-22.44 12.4 0 22.44 10.05 22.44 22.44zm-38.03 0c0 12.77-10.35 23.12-23.12 23.12s-23.12-10.35-23.12-23.12c0-12.77 10.35-23.12 23.12-23.12s23.12 10.35 23.12 23.12zm-38.03 0c0 13.14-10.65 23.79-23.79 23.79-13.14 0-23.79-10.65-23.79-23.79 0-13.14 10.65-23.79 23.79-23.79 13.14 0 23.79 10.65 23.79 23.79zm-38.03 0c0 13.51-10.95 24.46-24.46 24.46-13.51 0-24.46-10.95-24.46-24.46 0-13.51 10.95-24.46 24.46-24.46 13.51 0 24.46 10.95 24.46 24.46zm-38.03 0c0 13.88-11.25 25.13-25.13 25.13s-25.13-11.25-25.13-25.13c0-13.88 11.25-25.13 25.13-25.13s25.13 11.25 25.13 25.13zm-38.03 0c0 14.25-11.55 25.8-25.8 25.8-14.25 0-25.8-11.55-25.8-25.8 0-14.25 11.55-25.8 25.8-25.8s25.8 11.55 25.8 25.8zm-38.03 0c0 14.62-11.85 26.48-26.48 26.48-14.62 0-26.48-11.85-26.48-26.48 0-14.62 11.85-26.48 26.48-26.48 14.62 0 26.48 11.85 26.48 26.48zm-38.03 0c0 14.99-12.15 27.15-27.15 27.15-14.99 0-27.15-12.15-27.15-27.15 0-14.99 12.15-27.15 27.15-27.15 14.99 0 27.15 12.15 27.15 27.15zm-38.03 1e-5c0 15.36-12.46 27.82-27.82 27.82s-27.82-12.46-27.82-27.82c0-15.36 12.46-27.82 27.82-27.82s27.82 12.46 27.82 27.82z" clip-path="url(#clipPath52)" stop-color="#000000" stroke-linecap="square" stroke-width=".4872" style="paint-order:markers fill stroke"/></pattern></defs><g transform="translate(-.7915 -.1364)"><rect id="rect1" x=".7915" y=".1364" width="143.8" height="297.5" fill="url(#pattern7)" opacity=".75" stroke-linecap="round" stroke-linejoin="round" stroke-width=".953"/><use transform="rotate(180 147.7 148.9)" xlink:href="#rect1"/></g></svg>
