<svg width="705.6mm" height="529.2mm" version="1.1" viewBox="0 0 705.6 529.2" xml:space="preserve" xmlns="http://www.w3.org/2000/svg" xmlns:xlink="http://www.w3.org/1999/xlink"><defs><filter id="filter91" x="-.03129" y="-.05823" width="1.063" height="1.116" color-interpolation-filters="sRGB"><feTurbulence baseFrequency="0.17799999999999999" numOctaves="2" result="result0" type="fractalNoise"/><feDisplacementMap in="SourceGraphic" in2="result0" result="result2" scale="2" xChannelSelector="R" yChannelSelector="G"/><feBlend in="result2" in2="result2" mode="multiply" result="result5"/><feComposite in="result0" in2="result4" k1="3.3495942109860248" k2="-0.70982749417701818" k3="0.63902671292701818" k4="-0.03243582589285765" operator="arithmetic" result="result6"/><feComposite in="result6" in2="result5" operator="" result="fbSourceGraphic"/><feColorMatrix in="fbSourceGraphic" result="fbSourceGraphicAlpha" values="0 0 0 -1 0 0 0 0 -1 0 0 0 0 -1 0 0 0 0 1 0"/><feGaussianBlur in="fbSourceGraphic" result="result5" stdDeviation="5.537082837975543"/><feTurbulence baseFrequency="0.0030000000000000001" numOctaves="2" result="result1" type="fractalNoise"/><feDisplacementMap in="fbSourceGraphic" in2="result1" result="result3" xChannelSelector="R" yChannelSelector="G"/><feComposite in="result3" in2="result1" operator="out" result="result4"/><feComposite in2="result4" k1="5.0318444293478279" k2="4.601868813082298" k3="0.3" operator="arithmetic" result="result6"/><feComposite in="result6" in2="result5" result="fbSourceGraphic"/><feColorMatrix in="fbSourceGraphic" result="fbSourceGraphicAlpha" values="0 0 0 -1 0 0 0 0 -1 0 0 0 0 -1 0 0 0 0 1 0"/><feTurbulence baseFrequency="0.0039999999999999723" in="fbSourceGraphic" numOctaves="5" result="result4" type="fractalNoise"/><feDisplacementMap in="fbSourceGraphic" in2="result4" result="result3" scale="10" xChannelSelector="R" yChannelSelector="G"/><feDiffuseLighting lighting-color="rgb(233,230,215)" diffuseConstant="4.7231656029110862" in="result4" result="result1" surfaceScale="5"><feDistantLight azimuth="360" elevation="6"/></feDiffuseLighting><feComposite in="result3" in2="result1" operator="in" result="result2"/><feComposite in2="result1" k1="3.1986137058423907" operator="arithmetic" result="result5"/><feBlend in="result5" in2="result3"/></filter><filter id="filter299" x="-.07812" y="-.1762" width="1.156" height="1.352" color-interpolation-filters="sRGB"><feGaussianBlur in="SourceGraphic" result="result1" stdDeviation="3"/><feTurbulence baseFrequency="0.05" numOctaves="5" result="result0" type="fractalNoise"/><feDisplacementMap in="result1" in2="result0" result="result2" scale="10" xChannelSelector="R" yChannelSelector="G"/><feColorMatrix result="result3" values="1 0 0 0 0 0 1 0 0 0 0 0 1 0 0 0 0 0 10 0"/><feBlend in="result2" in2="result3" mode="multiply" result="result5"/><feGaussianBlur in="result3" result="result4" stdDeviation="5"/><feComposite in="result4" in2="result5" k1="0.5" k2="0.15" k3="1.5" operator="arithmetic" result="result6"/><feComposite in="result6" in2="result4" operator="in"/></filter><filter x="-.1677" y="-.4816" width="1.335" height="1.963" color-interpolation-filters="sRGB"><feGaussianBlur stdDeviation="5.8204540307971016"/><feBlend/><feBlend in="SourceGraphic"/><feBlend result="fbSourceGraphic"/><feColorMatrix in="fbSourceGraphic" result="fbSourceGraphicAlpha" values="0 0 0 -1 0 0 0 0 -1 0 0 0 0 -1 0 0 0 0 1 0"/><feTurbulence baseFrequency="0.20000000000000001" in="fbSourceGraphic" result="result1" seed="50" type="fractalNoise"/><feGaussianBlur result="result7" stdDeviation="3.4780308820199273"/><feDisplacementMap in="fbSourceGraphic" in2="result7" result="result5" scale="18.657394935344829" xChannelSelector="G"/><feComposite in="result5" in2="result1" operator="in" result="result2"/><feGaussianBlur result="result6" stdDeviation="1.5"/><feSpecularLighting in="result6" result="result4" specularConstant="1.2813674347310129" specularExponent="50" surfaceScale="-2.8358107346754808"><feDistantLight azimuth="187" elevation="215"/></feSpecularLighting><feComposite in="result4" in2="result2" k1="1.75446125291149" k2="-2.155852702833851" k3="0.820403484083851" operator="arithmetic" result="result91"/><feBlend in2="result91" mode="multiply" result="fbSourceGraphic"/><feComposite in="fbSourceGraphic" in2="fbSourceGraphic" k1="6.6304499466226723" k2="8.220654600155278" k3="5.2890109423524834" k4="-2.3492545370729809" operator="arithmetic" result="result2"/><feComposite in="result2" in2="fbSourceGraphic" k1="0.63373447204968869" k2="0.42989979619565233" k3="1.5503991168478279" k4="-0.068313882958074501" operator="arithmetic" result="result4"/><feBlend in="result4" in2="result4" mode="screen"/></filter><filter id="filter719" x="-.00145" y="-.002697" width="1.003" height="1.005" color-interpolation-filters="sRGB"><feGaussianBlur result="result1" stdDeviation="0.002122961956521739"/><feBlend in2="result1" mode="soft-light" result="fbSourceGraphic"/><feTurbulence baseFrequency="0.14328614077360735" result="result3" type="fractalNoise"/><feDisplacementMap in="fbSourceGraphic" in2="result3" result="result2" scale="42.922700026939651" xChannelSelector="B" yChannelSelector="R"/><feMorphology operator="dilate" radius="0.35015785530821913" result="result4"/><feBlend in2="result2" mode="overlay"/></filter><linearGradient id="linearGradient1047" x1="404.7" x2="383.7" y1="97.18" y2="30.59" gradientTransform="translate(35.84 4.396)" gradientUnits="userSpaceOnUse"><stop stop-color="#101" stop-opacity=".1097" offset="0"/><stop stop-opacity="0" offset=".9973"/></linearGradient><radialGradient id="radialGradient304" cx="353.5" cy="265.3" r="350" gradientTransform="matrix(1 0 0 .7545 0 65.12)" gradientUnits="userSpaceOnUse"><stop stop-color="#1f0a40" stop-opacity="0" offset=".6842"/><stop stop-color="#1f0a40" offset=".8518"/></radialGradient></defs><g fill="#f0f" filter="url(#filter299)" opacity=".587" style="mix-blend-mode:normal"><path d="m340.2 105.3 137.5-27.27" fill="#00f" opacity=".75" stroke-width="0"/><g stroke="#00f" stroke-linecap="round" stroke-linejoin="round" stroke-width=".265"><path d="m370.7 115.6-117.5-29.64 203.9-80.05 43.61 87.33z" fill="url(#linearGradient1047)" opacity=".75"/><g><path d="m354 276.9s73.21 9.853 77.66 20.92c4.452 11.06-14.22 10.02-14.22 10.02l-31.1.5169-38.88-5.569 3.312-13.13z" fill="#250027" fill-opacity=".9686" opacity=".75" stop-color="#000000" style="-inkscape-stroke:none;font-variation-settings:normal"/><path d="m269.5 261.3 34.34 20.01 9.539-6.839-26.68-13.65z" fill="#350048" fill-opacity=".8667" opacity=".75" stop-color="#000000" style="-inkscape-stroke:none;font-variation-settings:normal"/><path d="m471.7 273 1.478 15.82 26.71-3.782-1.765-17.01z" fill="#800080" fill-opacity=".7686" opacity=".75" stop-color="#000000" style="-inkscape-stroke:none;font-variation-settings:normal"/><path d="m227.8 260.2 3.705 16.73 6.647-2.307-6.38-15.69z" fill="#800080" opacity=".75" stop-color="#000000" style="-inkscape-stroke:none;font-variation-settings:normal"/><path d="m281.7 259.1 27.11 21.23 1.93-4.164-23.49-17.43z" fill="#1f0020" fill-opacity=".9804" opacity=".75" stop-color="#000000" style="-inkscape-stroke:none;font-variation-settings:normal"/><path d="m354.4 282.3 73.32 22.6 4.433-4.964-6.938-9.409-70.51-14.35z" fill="#350465" fill-opacity=".6941" opacity=".75" stop-color="#000000" style="-inkscape-stroke:none;font-variation-settings:normal"/><path d="m231.6 303.9.3209 26.08 21.27-7.169.6168-25.86z" fill="#2b0000" opacity=".75" stop-color="#000000" style="-inkscape-stroke:none;font-variation-settings:normal"/><path d="m377.1 168.5-3.34 71.16 42.37.3818-2.927-77.48z" fill="#2b003c" fill-opacity=".8902" opacity=".75" stop-color="#000000" style="-inkscape-stroke:none;font-variation-settings:normal"/><path d="m424.6 156.3.6918 83.27 47.08 1.256.8986-91.16z" fill="#2b0038" fill-opacity=".8941" opacity=".75" stop-color="#000000" style="-inkscape-stroke:none;font-variation-settings:normal"/><path d="m549.1 254.3c-3.005-.3406-12.83 23.92-12.83 23.92l-16.02 7.693 1.612 38.12-9.309 16.13-4.579 6.394-4.347-6.341 5.862-10.19 7.882-7.369-.5291-38.63 14.55-6.729 10.94-22.67z" fill="#1f0a40" fill-opacity=".9882" opacity=".75" stop-color="#000000" style="-inkscape-stroke:none;font-variation-settings:normal"/></g></g></g><g transform="translate(247.9 116.1)" fill="#00ffd2" filter="url(#filter91)"><path d="m89.79 121.9c4.704 3.067 5.136 6.476 8.469 3.76 3.332-2.716 4.171-4.68 4.171-4.68m-18.74-15.69c.8012 8.528 2.147 9.743 2.147 9.743m-1.878-13.75-2.34-7.159 2.535 2.408.3288-3.845 2.107 1.889 2.935-3.315-.3109 3.562 5.5-3.989-1.457 2.82 6.163-1.853-.6604 2.593 5.501-2.47-1.975 3.062 3.95-.8443.5808 1.61m-28.68 27.75s.8295-1.767 2.653-.5253c1.824 1.241 3.704 4.955 2.731 5.483-.9734.5277-2.122-.3863-2.122-.3863l-3.047-2.579m1.607-4.243c2.833-.6722 6.103 1.934 5.265 5.174-.8378 3.239-1.325 1.38-1.325 1.38l-.9004-.7866m4.56-9.716 1.513 2.124m-2.4-2.12 1.399 2.408m1.376-1.455-2.709 1.161m1.804-1.934-2.153 1.378m4.029.5943a3.576 3.425 0 01-3.974 2.945 3.576 3.425 0 01-3.126-3.768 3.576 3.425 0 013.895-3.042 3.576 3.425 0 013.226 3.691zm7.849-.4145-6.253.5698m.3638-5.396 5.748-.6235m-6.889 1.708c3.387-4.782 7.01-3.742 7.117-.8013.1073 2.941 1.078 6.416-3.099 6.195-4.176-.2203-3.961-2.429-3.961-2.429m6.805-9.927c-.2275 1.577-.2275 1.928-.2275 1.928m-10.36-2.767c.2408 1.227.3458 1.528.3458 1.528m6.924-4.342c1.232 1.119 3.838 1.851 6.656 1.851m-17.27-3.111s1.949-3.677 2.959-2.751c1.01.9259 4.054 3.923 4.054 3.923s-.1335-.1204.6866 0m-11.85-13.94 26.85-.6935s1.362 36.73-2.4 42.13l-26.74-2.707zm92.61 114.8-1.467 8.468-2.396 1.206m10.12-21.14-.4961 8.354-8.971 4.622m-65.98-51.66s7.275 5.598 12.73 6.2c5.456.6021 11.68 1.62 11.68 1.62s17.59-.6512 21.83 4.887c4.244 5.538-.0587-.6994-.0587-.6994s26.32 3.81 28.51 6.446c2.192 2.636 9.081 4.952 8.122 8.788-.9594 3.836 2.466 4.325-10.32 13.89-12.78 9.561-2.607 10.77-8.503 21.14s-7.613 10.69-11.14 8.631c-3.526-2.061-7.836-24.71-21.99-25.15-14.16-.4434-34.9-3.957-34.9-3.957m16.47 22.91-1.127 10.57s1.063 1.823 3.411 2.426c2.348.6034 5.747-1.432 5.747-1.432l1.24-9.936m-24.92 17.76 68.26 29.09s-62.72 51.68-70.14 66.07c-7.415 14.39-123.2-67.98-123.2-67.98l11.61-7.182m-18.51-14.93 88.77 67.37s88.86-35.47 98.09-38.11c9.231-2.638-89.9-55.29-97.87-53.93-7.971 1.362-89 24.67-89 24.67zm-9.93 41.13 7.106 5.697s-4.386 1.005-5.407 3.859 4.719 7.356 4.719 7.356.1102 6.256-3.93 6.426c-4.04.1703-8.445-9.61-8.445-9.61l.5744-4.012s3.984-8.431 5.424-7.883m-18.16-12.09s9.231.0912 12.35.577c0 0-2.194 12.74-5.893 13.36-3.699.6229-2.238-3.219-7.477-1.171-5.239 2.048-13.39 1.511-13.39 1.511s-5.463-2.97 1.34-4.945 12.8-2.498 14.12-2.498-1.063-6.834-1.063-6.834zm-68.27.3555 4.124 2.061s12.47-13.96 16.74-13.06m2.127 12.07-1.615 3.133s-10.55-3.82-15.81-1.872m-5.741-2.387s2.256-3.655 4.133-5.538c1.877-1.883 16.41-7.873 16.41-7.873l16.09 10.6-6.093 6.537s-8.407-3.465-12.32-3.465m49.12-9.463c-17.22-8.135-32.64 2.806-32.64 2.806m54.96-19.55s-7.384 5.724-6.153 9.306m-27.35-18.61c1.49 4.273 7.098 6.371 10.03 4.58m-28.81 16.82s-6.268-2.257-3.994-3.775c2.274-1.518 8.41-7.342 8.543-11.01m27.86 8.125c-6.003 6.364-2.652 11.36-2.652 11.36s-29.32 6.136-32.24 3.221c-2.914-2.914-2.492-7.961-2.492-7.961l2.915-1.646m8.988-13-12.37-2.457 5.63-2.632s-.872-4.487.6081-5.599 8.583-8.174 9.143-6.657c.5601 1.517 4.166 3.182 5.445 6.091s3.966 1.992 3.966 1.992-1.912 7.963 3.415 9.403c5.327 1.441 8.897-5.412 8.897-5.412l6.094 1.031 4.463-.81s10.03 4.442 10.31 6.319c.2839 1.877-6.766 3.669-7.01 6.444-.2436 2.776 1.226 4.51 1.226 4.51s-9.718-6.103-14.3-4.665m-41.91-20.73 60.64-15.74m-87.47-.4075 10.12-4.097.3837 1.34m-11.5-1.426 8.941-3.288.3199.8797m-9.272 3.011 11.21-3.475-.1726 1.146m-11.01 3.231 14.13-3.955.2591 3.405m8.053 12.79c1.823 2.844 4.92 10.19 1.615 14.23s-16.57 5.31-16.57 5.31-6.721 1.003-8.667-1.029c-1.946-2.032-6.694-17.09-7.537-21.6-.8424-4.51-3.739-10.08-.2664-12.29 3.473-2.214 3.555-2.066 3.555-2.066m17.3 22.08 12.05-5.642.3552-1.771h1.626l.3113 1.083v1.431l-1.661-.0116m-2.704-1.531s-3.999-3.14-10.2.8023c-6.201 3.942-4.864 5.853-4.864 5.853s-.8661 7.383 2.293 8.833m6.153-31.8c-9.955-1.314-14.79 1.604-15.23 4.155s1.427 12.92 3.774 17.41-.3433-4.217-.3433-4.217-1.028-4.632 1.013-7.513c2.041-2.882 11.38-5.639 14.35-4.225 2.968 1.414 7.145.7866.6395 9.17m-17.47-16.57s11.5-.8961 13.13 2.144c1.626 3.04 2.164 4.343 2.164 4.343m-23.14-4.393c-1.193-4.389 3.98-9.427 7.639-2.635m256.6 14.69 19.33-7.66m-17.44-5.225c-.8977.1204 9.469-4.696 9.469-4.696m-74.27 8.319 62.75 9.724 1.913-13.5-47.19-8.255m-11.89 5.705s27.95-18.16 73.41-13.46m-140 9.843 52.86 8.669m-51.78-25.17 50.54 8.987m19.17-46.02c-11.22 3.494-17.04 25.64-19.05 44.75-1.172 14.73 1.503 28.65 9.138 18.83 7.635-9.823 20.5-22.22 26.42-24.74 5.919-2.519 5.8-9.728 2.88-12.24-2.92-2.51-24.63-24.36-17.26-29.91 7.369-5.55 13.28-3.087 16.63-.6776s9.49 13 10.77 20.75m-48.53-13.47s6.263-1.448 11.7 1.624m-60.65 18.19 33.27 4.843m3.269-23.53c-1.922 1.81-5.108 4.283-5.108 4.283m1.846-6.325c-1.083-.0826-8.154 7.521-8.154 7.521m-32.29-4.911c-2.938 7.496 21.41 14.93 32.24 18.64 10.83 3.711 30.94-9.636 30.94-9.636l1.884-4.518s.8447-1.273-3.326-3.508c-4.17-2.235-15.26-7.572-21.02-11.68-5.762-4.104-28.8-.5268-34.36 5.217-5.551 5.744-6.358 5.476-6.358 5.476zm-6.84 20.92c-.3078-8.702 14.62-11.11 14.62-11.11m-19.41 37.23a1.321 2.802 0 01-1.187 2.418 1.321 2.802 0 01-1.376-1.913 1.321 2.802 0 01.5707-3.274 1.321 2.802 0 011.632.4471zm9.354 10.79c.4335.6513 2.739 6.441 2.739 6.441l3.082-9.343m-24.97 8.639 2.355 7.102 3.176-8.228m-27.17-1.012 3.984 7.682 2.888-6.649m-9.969-6.762.3315 5.481 25.58 2.492m-23.85-39.3-1.871 26.82m29.3-19.37-27.85-7.144 19.31-7.081m31.55 7.658-20.1 5.906m-35.25 18.19-.1165 3.158m-.319-3.228-9.945.8111.9815 9.429 9.506-1.374-.1878-3.826m-5.098-3.124 2.734.3672-.229 3.6-2.242 1.564zm40.09-23.38c-2.883 6.742.9619 7.103-5.087 9.542s-4.435-.0687-8.808 5.653c-4.373 5.721-.8286 4.132-8.163 5.726-7.334 1.594-2.124 5.435-9.73 5.11-7.606-.3255-5.907-.6861-5.907-.6861m31.18-35.75 26.64 7.168s-2.887 18.06-1.464 30.07l-24.38 9.62.3026-25.25m-116.7-46.96c2.831.8348 5.295 1.759 11-1.632m-.7279-1.222 1.905.2707-.1917 2.881s-4.728 4.629-12.46 1.071l-.2642-2.416 1.369-.4076m2.07-5.832h-1.443l-1.082-.6374-1.153.6618 1.778.3788-.9161.6198 1.047-.1971-1.165 1.162 1.972-1.277 1.298-.4051m2.702-.3255 1.55-.2238 1.024-.5636.7614.3794-.7515.6181.8321.2257-1.06.5329-2.132-.188m-3.099-1.382-.3335 3.708.548 1.872-1.699.0245-1.088.6363 1.67.964.9389-.6504 1.865-.0839.132-2.452 1.641.0784-.1822 2.157 3.698-.5019.1236-.9893-2.213-.3308v-2.132l-2.214.1703-.2502-3.05m.4256-3.82s-.3624.8806-1.689 1.092m-.3355-4.671v2.008m-2.073-1.968.4086 2.47m-3.44-3.84c-1.021.2554-1.649-4.422-1.649-4.422l2.071 2.434-.6393-3.347.8786 3.108 1.496-4.805-.7002 3.888 4.034-2.753s-.1634 2.049-.0788 2.604c.0847.5558 5.788-3.162 5.788-3.162l-.6992 2.674-1.903 1.354 4.298-.7896-3.462 2.112 2.355 1.017-2.812-.1703 1.197 1.854s1.344 5.737-.1164 6.418c-1.46.6807-7.712 1.257-9.192.6839-1.479-.5732-1.561-7.855-1.561-7.855zm32.2-5.022.6642 1.024 1.113.2003zm.8287 10.97s-10.56-2.542-7.463-7.202m2.046 1.535c-3.838-2.775-3.736-4.765-1.671-5.785 2.066-1.02 1.506-3.438 1.506-3.438s2.021 3.09 1.731 3.384c-.2892.2948-.2603-1.964-.2603-1.964s3.16-1.341 5.05.4156c1.889 1.757.9842 3.475 2.227 3.936 1.243.4606 2.469-.6912 2.821.4864.3524 1.178 1.711.9749.6756 1.98-1.035 1.005.6929 1.762-2.513 1.21s-7.405-3.519-6.782-2.06 1.638 1.537.0483 1.242c-1.59-.2946 4.804 3.176 6.908 3.296 2.103.12 4.411 3.7 1.792 5.926s-1.022.6594.1963 1.514c1.219.8547 3.649 2 1.919 3.128-1.73 1.129-11.12 3.432-13.07 2.84s-5.255-1.725-3.95-3.003 3.251-2.005 3.251-2.005 4.752.43 3.573-.187c-1.18-.617-2.131.1295-2.131.1295s-6.358-.6556 1.38-5.516m-31.88 9.623c-.6946 0-7.756 1.041-7.756 1.041m36.18-6.132c-.5608.162-16.89 2.654-16.89 2.654m37.8-5.934-8.339 1.652m29.07-3.458-1.588.3333m6.046 1.453 16.02 4.689m-94.22 27.37.4794-8.915m9.706-1.412-6.652 10.73-3.646-.1097 6.219-10.38m45.31-6.872.212 7.303m14.77-9.703c-.5954.2357-11.04 9.513-11.04 9.513l-4.008.2455 11.58-9.312m-63.83 5.07 95.97-13.08.1384 3.428-111.6 16.89m77.35-36.24-.244 1.352m-.735-1.574c-.1749 1.104-.1264 1.222-.1264 1.222m4.038 5.166c-.1745.5234.9581 2.041-.3972 3m-3.72-5.708c.6817 4.745 1.734 5.373 1.734 5.373m3.792-3.611a1.434.9098 0 01-1.289.7851 1.434.9098 0 01-1.495-.6212 1.434.9098 0 01.6198-1.063 1.434.9098 0 011.772.1452zm-2.796-4.396a2.242 2.589 0 01-2.159 2.245 2.242 2.589 0 01-2.264-2.102 2.242 2.589 0 011.433-2.919 2.242 2.589 0 012.724 1.166m6.404 10.25-11.27 3.022m9.359-19.45 1.634 16.37 3.253 3.55m-15.06-18.37 10.41-1.478 3.504-2.138m-14.6.32s.173 21.36.9942 23.18m-1.012-23.29s13.63-1.979 14.86-.0552c1.222 1.924 1.364 22.44 1.364 22.44l-13.18 3.866-5.787-1.419-1.062-24.19zm378.4 135.7-3.336-1.178s-5.7 5.692.6554 6.984m-22.77 1.673-4.826-.5288s-4.994 5.183 1.422 6.452c6.416 1.27 4.427.8349 4.427.8349m-25.65-20.77c-8.125.1116-9.245 5.771-5.305 7.76m58.37 2.844a2.776 3.458 0 01-3.085 2.973 2.776 3.458 0 01-2.427-3.804 2.776 3.458 0 013.023-3.07 2.776 3.458 0 012.504 3.726zm-24.15 7.025a2.647 3.404 0 01-2.941 2.927 2.647 3.404 0 01-2.313-3.745 2.647 3.404 0 012.882-3.023 2.647 3.404 0 012.387 3.667zm-25.55-13.07a6.425 5.841 0 01-7.14 5.023 6.425 5.841 0 01-5.616-6.427 6.425 5.841 0 016.996-5.187 6.425 5.841 0 015.795 6.294zm29.55-16.64 20.08 15.97-3.154 1.987-19.99-15.76-1.605 1.714-3.389 21.37-5.21-.5017 4.57-21.09-1.086 4.954-21.75 4.824-2.769-4.278 24.28-7.208.6985-1.696m81.48 2.384 17.48 2.583m-47.08-39.1c-.583.3535-7.103 46.09-7.103 46.09s-6.034 4.408-5.284-.7091c.7501-5.117 6.625-37.83 6.625-37.83m-10.63 20.97 6.093 1.786m12.27-4.232 11.68 1.299-4.681 19.29-2.756-.5238-2.641-4.637 4.715.8053-5.43-1.195.9502-3.314 5.356.7144-5.483-1.711zm27.52-18.65-2.509 29.32-11.26 17.51m13.05-43.48c-.6652.4809-7.83 11.52-7.83 11.52m-1.296-3.408 8.644-10.39m-10.54-4.357-18.3 11.83-3.619 36.75 18.37 2.562 5.165-32.42-.7565-3.804-18.08-1.935m2.954-29.23c11.88 0 18.75-3.4 16.47 5.302-2.278 8.702-4.624 9.689-2.45 11.47m-18.99-18.29s13.83-4.027 15.37 1.081c1.534 5.108.7353 8.552-3.065 11.55-3.8 2.998-3.319 10.55-3.319 10.55m-9.945-25.21c12.62 1.856 13.21-2.962 14.45 2.11 1.243 5.072-4.69 6.73-2.181 11.76 2.509 5.034 5.688 7.634 5.688 7.634m-13.96-10.43.1991 3.64 4.313-5.371m-4.824 5.385-10.08-1.291m14.69-8.266-3.979 5.941-9.472-1.074m5.272-16.55 14.69 5.308-1.883 1.71m-75.72-15.73 14.07 3.189m47.06 29.78c-1.061.826-4.569 1.307-4.569 1.307m-2.37 5.76 5.731-1.771.8679-4.871-3.908-4.391m-65.95 3.911s7.429 16.06 10.93 18.81m-1.012-23.21-6.878-1.348s-7.474-.2282-7.84 5.16c-.3668 5.388 5.037 17.51 9.316 21.36 4.28 3.856 6.277 5.245 6.277 5.245m-5.592-37.25 14.98 13.22m2.985-5.667-12.27-10.53c-6.949.9013-6.058.0648-6.929 1.348-.8714 1.283 14.86 16.89 14.86 16.89m-5.247-16.03 9.741 1.187m30.89-41s2.806 5.519 1.084 10.12m-2.532-10.79c7.097.9719 6.037 11.26 6.037 11.26l-2.335.4267-8.132-2.409-.0763-1.273s.1133-4.445 4.507-8.008zm4.768-15.19c-11.67-1.548-15.69 22.49-20.72 26.12-5.035 3.627-11.94 3.055-13.02 5.122s2.222 38.54-3.948 45.46c-6.17 6.921-8.317 5.371-9.274 13.91-.9575 8.542 13.68 7.839 13.68 7.839s25.06 1.632 28.17-.1742c3.108-1.806 4.209-1.632 5.5-5.301 1.291-3.669 14.51-53.78 14.51-53.78s-.2496-5.02-2.228-7.714c-1.979-2.694-6.216-12.26-6.239-19.63-.023-7.373-1.72-9.35-3.732-10.95-2.012-1.602-2.697-.8958-2.697-.8958zm-25.89 5.893-8.29-1.021s-5.871 19.1-4.516 24.23m3.933-28.57 25.51 3.08m-31.35 28.91 6.623 1.191m-1.226-32.83s-6.244 22.17-5.492 31.76m-17.55 4.798c.5469.6563 4.36 4.142 4.36 4.142m-10.65-2.748c.4037 0 7.54 3.952 7.54 3.952m-12.34-2.912s7.368 3.571 7.786 3.866m-2.018.8934c.58-.0851 12.15-4.541 15.3-4.626m-19.22 3.935s12.87-4.723 17.47-4.999m-20.37 3.166c.6324-.3862 14.07-4.429 18.83-4.846m-15 10.04 24.87-4.682m-36.34-3.859 11.96 8.336-2.17 4.12m12.77-22.09c-.3883.0587-1.48 1.387-1.48 1.387m.6322-3.218c-.4508.18-1.478 1.125-1.478 1.125m1.972-.382c-1.807 1.903-1.293 1.612-1.293 1.612m-4.038-4.517s1.396-1.59 2.741-1.027c1.344.5631.153 5.312 1.692 6.011 1.539.6995 2.484 1.36 2.991-.4902.5076-1.85 2.62 4.031 2.62 4.031l-1.716-.5616s-.0735 2.219-1.838 1.688c-1.764-.5307-4.366-1.622-4.424-2.937-.0582-1.316-.204-3.111.0754-4.463.2794-1.352-.4289-2.462-1.208-1.502m-8.673 3.479-4.17.0217.1132 2.01 4.386.095s-1.012 4.425-1.012 4.831 2.444-.0681 2.444-.0681l.843-3.075.7712-.0313 3.463 2.251 2.109-2.024-4.145-2.677 4.433-2.837-2.074-2.88-2.489 2.49m-.5305-.2947a3.013 2.418 0 01-3.348 2.079 3.013 2.418 0 01-2.634-2.66 3.013 2.418 0 013.281-2.147 3.013 2.418 0 012.718 2.606zm.6405-.0603a3.594 3.233 0 01-3.994 2.78 3.594 3.233 0 01-3.142-3.556 3.594 3.233 0 013.914-2.871 3.594 3.233 0 013.242 3.483zm-6.88-2.987-.438-2.272 4.52-1.259.8144 2.618m-7.218 1.758 10.06-2.2m-16.23-3.533 28.49-3.309.198 18.82-27.06 3.828zm-1.26-1.5 1.699 22.83 10.43 10.66 27.64-5.492-.1335-3.025-8.617-6.85.0945-21.14zm-14.01 23.1c.9432.5109 7.221 2.776 7.221 2.776m-4.058-6.283a1.902 1.595 0 01-2.113 1.371 1.902 1.595 0 01-1.662-1.755 1.902 1.595 0 012.071-1.416 1.902 1.595 0 011.715 1.718zm6.329 4.605a.5137.5627 0 01-.5709.4839.5137.5627 0 01-.449-.6191.5137.5627 0 01.5594-.4997.5137.5627 0 01.4633.6063zm2.004-.8192a.606.5746 0 01-.6735.4941.606.5746 0 01-.5297-.6322.606.5746 0 01.6599-.5102.606.5746 0 01.5466.6191zm-3.688-1.047a.5504.5453 0 01-.6117.4689.5504.5453 0 01-.4811-.6.5504.5453 0 01.5994-.4843.5504.5453 0 01.4964.5876zm2.064-1.2a.4781.4245 0 01-.5313.365.4781.4245 0 01-.4179-.467.4781.4245 0 01.5206-.377.4781.4245 0 01.4312.4574zm-8.089-5.057c-6.857 1.113-11.44 8.712-9.782 9.761 1.662 1.048 5.58 2.16 8.572.3782 2.991-1.782 4.121-1.088 4.121-1.088s-.4087 4.55 1.108 5.241c1.517.6913 6.877 1.021 7.73-1.517.8535-2.538-.839-9.185-.839-9.185s-4.417-3.432-7.68-2.752c-3.263.6806-3.23-.838-3.23-.838zm15.19 47.87 21.38 3.958m-47.62-7.956c1.055.3227 18.89 3.324 18.89 3.324m-42.77-7.957 16.23 3.539m30.51-26.02-3.589 33.81s1.633 2.347 4.878-.3533.727-24.05 3.416-33.1m-8.092-16.2 4.096-1.361m-28.4 9.272 6.261-2.715m40.53 10.86 27.68 4.313m-45.72-7.719 8.422 1.611m-23.32-4.102 4.173.7225m-17.47-3.417 5.172 1.113m-5.587-1.314-.7538 4.233 58.16 7.924m-52.66-6.766-2.405 47.85m-2.414-48.88-4.042 49.36s2.989 2.954 5.778 1.68m17.49 24.47c.5697 0 3.45 2.421 3.45 2.421m-8.127-7.116c-5.195 2.999-5.341 4.505-4.097 5.063 1.244.558 2.584-.1206 2.584-.1206s5.237-4.554 2.949-3.042c-2.289 1.512-5.05 3.745-3.465 4.193 1.585.4476.9884 2.025 2.684.8224 1.696-1.203 3.942-3.846 3.942-3.846s-5.06 4.283-4.11 5.049 2.001 1.779 4.347-.7662m-9.435-3.697c-5.61-1.924-6.475-6.854-3.535-7.677 2.939-.8224 4.424 3.001 4.384 4.045m-15.94-7.576c2.774 3.184 7.256 4.59 9.428 4.229l2.172-.3613m-11.68-4.265c-4.101 2.156-2.678 4.423.5612 5.98 3.239 1.557 7.91 2.513 7.91 2.513l2.201-.8423m-13.09-3.706s.8571 4.907-.3455 6.695c-1.203 1.788.7075 4.202.7075 4.202s2.949 1.031 6.593 1.988c3.644.9576 5.709.294 11.64 2.954 5.936 2.66 10.05 2.211 11.58.9962 1.53-1.215 2.06-3.244 1.939-4.376-.1204-1.132-1.726-.8595-1.726-.8595l-1.668 3.614s-.8289 1.982-6.138.9563c-5.309-1.025-4.614-4.777-9.075-5.142-4.461-.365-10.69 1.064-12.21-.9236-1.517-1.988-1.472-3.09-1.472-3.09m-20.04-24.04c4.151 2.509 6.278 5.066 6.278 5.066m-6.747-9.02s6.331-.9294 8.932 4.649m3.949 2.385c4.348 3.588 5.431 4.304 5.812 6.083.3807 1.779-2.031 7.556-4.051 7.797m-14.67-14.98-3.097 3.076s.2135 3.343 1.878 1.886c1.665-1.457 3.754-4.291 3.754-4.291l-3.777 4.739s-.0974 3.321 2.257 1.41c2.354-1.911 3.22-3.878 3.22-3.878m2.124 7.646c3.53 2.94 3.878 4.805 3.878 4.805m-12.47-13.74c-3.203-2.966-3.397-5.184-.9773-6.533 2.42-1.349 8.847-2.172 10.32-.637 1.474 1.535 2.078 5.352 3.601 6.043 1.523.6911 3.07.872 3.07.872l-2.399-1.306s.5174-1.726 3.259.6782c2.742 2.405 5.317 3.54 5.212 5.998-.1058 2.458-.138 8.028-5.706 8.501-5.568.473-3.551-.6101-4.34-1.499-.7894-.8884.1526-2.985 1.695-4.007 1.542-1.022 1.828-1.224 1.088-3.027s-3.607-4.394-5.634-3.883c-2.027.5106.2959 1.676.2959 1.676s1.794 3.211.1069 4.597c-1.687 1.385-2.771 3.484-4.936 2.033-2.165-1.451-.2079-4.81-.2079-4.81m122.1-138.2-4.119 8.41 6.07 3.213 4.781-8.71zm-.5284-3.018-7.599 14.35 8.861 4.844 9.568-14.53-9.858-4.104m-23.98-12.96-.9557 7.825 7.103.4833.5512-8.887zm-2.449-2.061-.2546 14.36 10.34-.1789 1.137-14.85zm-30.81-53.08 2.671 60.79-4.09 10.43 7.419 6.355-1.84 1.439-7.676-7.633 3.458-11.73-2.064-59.04m-59.96 47.36s-6.614-1.232-6.342 4.261c.2719 5.493.2485 12.79 2.047 13.07s1.996.9936 2.339-.7487c.3427-1.742-2.754-10.97.1245-11.68 2.879-.7149 4.354 1.207 3.718.2909-.6354-.9158-1.804-5.865-1.887-5.192zm-41.21-23.77-.1325 62.26m45.76-75.93.5203 83.86m-1.64-.5709-1.028-83.39m49.91 88.35c-.7398 1.515.2975 8.805.2975 8.805m-99.95-10.08 17.94.3739m87.58-2.088-.2745 10.46-5.598 2.443-98.12-4.296-1.744-7.25 6.076-2.308m-.5538.0359 100.3.4081c-.5584-1.381-5.145-49.24-2.009-92.55m-58.22 64.76.7013 26.41m-1.405-82.34.8897 34.18m-41.28-26.72s-2.563 62.63 1.081 74.62m97.41-116.1c-1.589 10.69-4.646 16.7 5.579 20.21m-112.7 13.92c2.857-.5563 56.61-11.95 56.61-11.95m-59.98-3.825s111.3-25.75 118.6-21.93c7.367 3.814 1.108 25.46 1.108 25.46l-108.1 19.34s-7.853-1.622-10.35-2.923c-2.499-1.301-6.194-4.107-3.48-11.18 2.714-7.076 2.2-8.755 2.2-8.755zm-49.98-1.395c-180.6-69.79-190.2-71.87-190.2-71.87m192.1 70.02s227.5-42.11 236.9-38.99m-313 197.4a.9686.5493 0 01-.8452.5448.9686.5493 0 01-1.061-.406.9686.5493 0 01.5749-.6482.9686.5493 0 011.207.2408l-.8448.2686zm-4.289-.9411 5.921 3.022 5.554-5.561-4.811-2.789zm.4568-4.514a5.62 2.956 0 01-5.62 2.956 5.62 2.956 0 01-5.62-2.956 5.62 2.956 0 015.62-2.956 5.62 2.956 0 015.62 2.956zm-5.83-12.87c-.04243.6692-.2222 12.77-.2222 12.77m-1.3-12.74c0 1.363.3824 12.15.3824 12.15m10.71-14.75c-9.727 2.388-14.39 2.504-20.36.3192l3.371-17.33m11.54-.366 5.809 16.6m-5.446-16.6s-3.515-2.902-10.56-.495m-.2783.328s4.998 2.421 11.41.1962m25.65-27.79s5.145.0746 4.868.1348m-4.424-3.442 6.541.3012m-11.21-.2807 2.36.1163m-11.83-1.432 7.425.8041m-20.19-2.169 8.426.7164m16.11-.7626 4.829.3081m-12.43-1.37 4.01.0602m-21.58-1.617 13.93 1.083m12.08-1.384 7.176.5801m-11.81-1.455 1.925.5708m-13-1.4s8.852.6118 8.431.7921m-17.53-1.917 5.502.6478m4.293-10.42a2.042 1.966 0 01-2.042 1.966 2.042 1.966 0 01-2.042-1.966 2.042 1.966 0 012.042-1.966 2.042 1.966 0 012.042 1.966zm21.2 1.44a.8607 1.613 0 01-.8607 1.613.8607 1.613 0 01-.8607-1.613.8607 1.613 0 01.8607-1.613.8607 1.613 0 01.8607 1.613zm.7358-10.8a2.836 4.095 0 01-2.836 4.095 2.836 4.095 0 01-2.836-4.095 2.836 4.095 0 012.836-4.095 2.836 4.095 0 012.836 4.095zm-2.408-9.715a.9621 1.805 0 01-.9621 1.805.9621 1.805 0 01-.9621-1.805.9621 1.805 0 01.9621-1.805.9621 1.805 0 01.9621 1.805zm-19.19-4.014a2.168 2.067 0 01-2.168 2.067 2.168 2.067 0 01-2.168-2.067 2.168 2.067 0 012.168-2.067 2.168 2.067 0 012.168 2.067zm2.126 11.79a4.684 3.852 0 01-4.684 3.852 4.684 3.852 0 01-4.684-3.852 4.684 3.852 0 014.684-3.852 4.684 3.852 0 014.684 3.852zm7.565 5.983c-.3264.06021-1.679 7.052 6.162 7.381m-7.268-8.164s-1.219 8.97-6.701 9.265m14.48 2.863c-4.535 3.838-10.93 1.974-15.33-.3257m11.18-15.58s9.181 7.995 4.148 16.17m-9.474-16.52s-8.201 5.611-6.117 15.94m1.505-28.41 11.92 1.278s-.7342 6.856-4.663 7.611m-6.555-8.698s2.138 5.749 5.555 8.372m-8.163-14.61s-1.233 11.51 6.751 15.78m-6.203-15.99s11.66-.902 15.42 2.636c0 0 .9605 10.89-3.465 12.33m3.743-22.2c1.25.9327 1.568.3096.6525 2.946s-.6007 3.711.04672 2.375c.6474-1.336 2.7-4.379 2.981-2.97.2812 1.409.8396 4.597 1.469 3.575.629-1.022 1.226-1.827 1.226-1.827m-12.74-3.611c-.197 3.568-.1847 3.949.08579 3.115.2705-.8344 1.968-5.007 2.464-2.796.4957 2.21 1.326 4.531 1.862 3.683m-11.16-5.81c4.955-.2091 5.226 3.92.09898 4.202m-.2764-5.206.177 5.942m-3.434-6.304-.1782 4.591m-2.933-4.845.4041 4.949s1.501 2.663 2.139.1874m-8.237-6.339.2303 7.3s1.657 1.559 4.431-.3791m-11.27 54.84c1.388 1.338 1.394.5388 1.22-.005m38.93 4.021c-.1445 2.143 2.723 1.408 1.613.0477m-1.283-59.18c.08033 1.863-1.111 1.642-.9849.8262m-37.55-11.49c4.823 4.04-2.655 3.328-.9963 1.684m-3.656 67.4c1.846-72.54 1.846-72.62 1.846-72.62m44.49 11.36s-2.216 49.14.1625 66.16c0 0-42.59-8.096-46.69-5.039m2.238-72.38 43.04 11.76m43.54-34.53-2.116 127.4" fill="none" opacity=".75" stop-color="#000000" stroke="#0ff" stroke-linecap="round" stroke-linejoin="round" stroke-width=".265" style="-inkscape-stroke:none;font-variation-settings:normal"/></g><g fill="#000080" filter="url(#filter719)" opacity=".388" style="mix-blend-mode:color"><path d="m162.3 85.74 150.8 54.8-150.8-54.8zm336.3 21.48-181.8 32.26 181.8-32.26zm-183.4 34.94-2.484 124.4 2.484-124.4zm111.4 23.37 40.08 74.17-40.08-74.17zm-46.22 4.815 35.3 67.53c1.536-.3406-35.3-67.53-35.3-67.53zm151 94.62-12.02 9.798s9.809-7.857 12.02-9.798zm-108 58.53c-3.268.9634 245 39.52 245 39.52l-245-39.52zm-207.8 10.93-160.2 40.45 160.2-40.45zm89.77.9126-86.08 27.26 3.263-.9617 21.55 16.51-9.804-.4382-10.65 8.177 119.3 68.38 68.79-68.62-15.98-.7142-90.34-49.58z" fill="none" opacity=".75" stroke="#00f" stroke-linecap="round" stroke-linejoin="round" stroke-width=".265"/></g><g fill-opacity=".9882" stroke="#00f" stroke-linecap="round" stroke-linejoin="round" stroke-width=".265"><rect x="3.64" y="1.342" width="699.7" height="527.9" fill="#1f0a40" style="mix-blend-mode:exclusion"/><rect x="3.64" y="1.342" width="699.7" height="527.9" fill="url(#radialGradient304)" style="mix-blend-mode:normal"/></g></svg>
